# xmcd CD database file
#
# Track frame offsets:
#	150
#	9945
#	28383
#	50139
#	70624
#	98487
#	122189
#	145635
#	166330
#	185674
#
# Disc length: 2582 seconds
#
# Revision: 1
# Processed by: cddbd v1.5.2PL0 Copyright (c) Steve Scherf et al.
# Submitted via: CDex 1.70beta2
#
DISCID=830a140a
DTITLE=Silver Forest - 東方秘封魔術
DYEAR=2009
DGENRE=東方アレンジ
TTITLE0=drive to the ever sky
TTITLE1=Holy my Reincarnation
TTITLE2=active emotion
TTITLE3=providing the atmosphere
TTITLE4=つなみ
TTITLE5=閉ざされた境界線
TTITLE6=Ghost on the moon
TTITLE7=Cliche
TTITLE8=REAL THING
TTITLE9=hawks fly free
EXTD=YEAR: 2009
EXTT0=
EXTT1=
EXTT2=
EXTT3=
EXTT4=
EXTT5=
EXTT6=
EXTT7=
EXTT8=
EXTT9=
PLAYORDER=
